<svg id="图层_1" data-name="图层 1" xmlns="http://www.w3.org/2000/svg" viewBox="0 0 25.39 8.68"><defs><style>.cls-1{fill:#373431;}.cls-2{fill:#f3f3f3;}.cls-3{fill:#606060;}</style></defs><title>光传输单板实图</title><path class="cls-1" d="M.73,0H24.66a.73.73,0,0,1,.73.73V6.1a2.57,2.57,0,0,1-2.57,2.57H2.57A2.57,2.57,0,0,1,0,6.1V.73A.73.73,0,0,1,.73,0Z"/><path class="cls-2" d="M1.13,4.83H24.25a0,0,0,0,1,0,0V6.25a1.38,1.38,0,0,1-1.38,1.38H2.51A1.38,1.38,0,0,1,1.13,6.25V4.83a0,0,0,0,1,0,0Z"/><rect class="cls-3" x="4.21" y="7.02" width="2.38" height="0.61"/><rect class="cls-3" x="18.76" y="7.02" width="2.38" height="0.61"/></svg>